<svg width="24" height="18" viewBox="0 0 24 18" fill="none" xmlns="http://www.w3.org/2000/svg">
<path d="M19.9374 1.69092C18.4806 1.03828 16.9183 0.557438 15.2849 0.282038C15.2552 0.276725 15.2255 0.290008 15.2101 0.316574C15.0092 0.665473 14.7867 1.12064 14.6308 1.47839C12.874 1.22159 11.1261 1.22159 9.40533 1.47839C9.24947 1.11267 9.01883 0.665473 8.81701 0.316574C8.8017 0.290894 8.77197 0.277611 8.74224 0.282038C7.10972 0.556553 5.54747 1.0374 4.08974 1.69092C4.07712 1.69623 4.06631 1.70508 4.0591 1.7166C1.09588 6.03887 0.284129 10.2549 0.682348 14.4186C0.68415 14.439 0.695862 14.4585 0.712079 14.4709C2.66714 15.8727 4.56093 16.7237 6.41959 17.2878C6.44932 17.2966 6.48085 17.286 6.49977 17.2621C6.93944 16.6759 7.33135 16.0578 7.6674 15.4078C7.68722 15.3697 7.6683 15.3245 7.62776 15.3095C7.00611 15.0792 6.41418 14.7985 5.84478 14.4797C5.79974 14.4541 5.79613 14.3912 5.83758 14.3611C5.9574 14.2734 6.07723 14.1822 6.19165 14.0901C6.21237 14.0733 6.2412 14.0697 6.26553 14.0804C10.0063 15.7478 14.056 15.7478 17.7526 14.0804C17.7769 14.0689 17.8058 14.0724 17.8274 14.0892C17.9418 14.1813 18.0616 14.2734 18.1824 14.3611C18.2238 14.3912 18.2211 14.4541 18.1761 14.4797C17.6067 14.8047 17.0147 15.0792 16.3922 15.3086C16.3516 15.3236 16.3336 15.3697 16.3534 15.4078C16.6967 16.0569 17.0886 16.675 17.5202 17.2612C17.5382 17.286 17.5706 17.2966 17.6004 17.2878C19.468 16.7237 21.3618 15.8727 23.3169 14.4709C23.334 14.4585 23.3448 14.4399 23.3466 14.4195C23.8232 9.60578 22.5484 5.42431 19.9672 1.71748C19.9608 1.70508 19.95 1.69623 19.9374 1.69092ZM8.22599 11.8834C7.09981 11.8834 6.17183 10.8739 6.17183 9.63412C6.17183 8.39438 7.08179 7.38487 8.22599 7.38487C9.37921 7.38487 10.2982 8.40323 10.2802 9.63412C10.2802 10.8739 9.3702 11.8834 8.22599 11.8834ZM15.821 11.8834C14.6948 11.8834 13.7668 10.8739 13.7668 9.63412C13.7668 8.39438 14.6768 7.38487 15.821 7.38487C16.9742 7.38487 17.8932 8.40323 17.8752 9.63412C17.8752 10.8739 16.9742 11.8834 15.821 11.8834Z" fill="white"/>
</svg>
