<svg width="17" height="17" viewBox="0 0 17 17" fill="none" xmlns="http://www.w3.org/2000/svg">
<path fill-rule="evenodd" clip-rule="evenodd" d="M8.74331 0.694153C4.31586 0.694153 0.736694 4.29971 0.736694 8.76026C0.736694 12.3258 3.02999 15.344 6.2114 16.4122C6.60916 16.4925 6.75485 16.2387 6.75485 16.0251C6.75485 15.8381 6.74174 15.1972 6.74174 14.5293C4.51449 15.0102 4.05069 13.5678 4.05069 13.5678C3.69276 12.633 3.16241 12.3927 3.16241 12.3927C2.43343 11.8986 3.21551 11.8986 3.21551 11.8986C4.02414 11.952 4.44845 12.7265 4.44845 12.7265C5.16415 13.955 6.31743 13.6079 6.7814 13.3942C6.84761 12.8734 7.05985 12.5128 7.2852 12.3126C5.50881 12.1256 3.63982 11.4312 3.63982 8.33284C3.63982 7.45145 3.95776 6.73034 4.46156 6.16951C4.38207 5.96924 4.10362 5.14111 4.54121 4.03273C4.54121 4.03273 5.21725 3.81902 6.74158 4.8607C7.3942 4.68413 8.06723 4.59431 8.74331 4.59356C9.41936 4.59356 10.1085 4.68714 10.7449 4.8607C12.2694 3.81902 12.9454 4.03273 12.9454 4.03273C13.383 5.14111 13.1044 5.96924 13.0249 6.16951C13.542 6.73034 13.8468 7.45145 13.8468 8.33284C13.8468 11.4312 11.9778 12.1121 10.1882 12.3126C10.4799 12.5663 10.7316 13.0469 10.7316 13.8082C10.7316 14.8899 10.7185 15.758 10.7185 16.025C10.7185 16.2387 10.8644 16.4925 11.262 16.4124C14.4434 15.3438 16.7367 12.3258 16.7367 8.76026C16.7498 4.29971 13.1575 0.694153 8.74331 0.694153Z" fill="white"/>
</svg>
