<svg width="17" height="16" viewBox="0 0 17 16" fill="none" xmlns="http://www.w3.org/2000/svg">
<path d="M8.49992 4.66665C9.42039 4.66665 10.1666 3.92045 10.1666 2.99998C10.1666 2.07951 9.42039 1.33331 8.49992 1.33331C7.57944 1.33331 6.83325 2.07951 6.83325 2.99998C6.83325 3.92045 7.57944 4.66665 8.49992 4.66665Z" stroke="#F7F7F8" stroke-width="1.33333" stroke-linecap="round" stroke-linejoin="round"/>
<path d="M7.29995 4.19998L4.69995 6.79998" stroke="#F7F7F8" stroke-width="1.33333" stroke-linecap="round" stroke-linejoin="round"/>
<path d="M3.49992 9.66665C4.42039 9.66665 5.16658 8.92045 5.16658 7.99998C5.16658 7.07951 4.42039 6.33331 3.49992 6.33331C2.57944 6.33331 1.83325 7.07951 1.83325 7.99998C1.83325 8.92045 2.57944 9.66665 3.49992 9.66665Z" stroke="#F7F7F8" stroke-width="1.33333" stroke-linecap="round" stroke-linejoin="round"/>
<path d="M5.16663 8H11.8333" stroke="#F7F7F8" stroke-width="1.33333" stroke-linecap="round" stroke-linejoin="round"/>
<path d="M13.4999 9.66665C14.4204 9.66665 15.1666 8.92045 15.1666 7.99998C15.1666 7.07951 14.4204 6.33331 13.4999 6.33331C12.5794 6.33331 11.8333 7.07951 11.8333 7.99998C11.8333 8.92045 12.5794 9.66665 13.4999 9.66665Z" stroke="#F7F7F8" stroke-width="1.33333" stroke-linecap="round" stroke-linejoin="round"/>
<path d="M9.69995 11.8L12.3 9.19998" stroke="#F7F7F8" stroke-width="1.33333" stroke-linecap="round" stroke-linejoin="round"/>
<path d="M8.49992 14.6666C9.42039 14.6666 10.1666 13.9205 10.1666 13C10.1666 12.0795 9.42039 11.3333 8.49992 11.3333C7.57944 11.3333 6.83325 12.0795 6.83325 13C6.83325 13.9205 7.57944 14.6666 8.49992 14.6666Z" stroke="#F7F7F8" stroke-width="1.33333" stroke-linecap="round" stroke-linejoin="round"/>
</svg>
