<svg width="212" height="35" viewBox="0 0 212 35" fill="none" xmlns="http://www.w3.org/2000/svg">
<g filter="url(#filter0_b_23_2392)">
<path d="M0.5 12.2216C0.5 5.59417 5.87258 0.221588 12.5 0.221588H199.5C206.127 0.221588 211.5 5.59417 211.5 12.2216V22.9027C211.5 29.5301 206.127 34.9027 199.5 34.9027H12.5C5.87258 34.9027 0.5 29.5301 0.5 22.9027V12.2216Z" fill="url(#paint0_linear_23_2392)" fill-opacity="0.13"/>
<path d="M1 12.2216C1 5.87032 6.14873 0.721588 12.5 0.721588H199.5C205.851 0.721588 211 5.87031 211 12.2216V22.9027C211 29.2539 205.851 34.4027 199.5 34.4027H12.5C6.14872 34.4027 1 29.2539 1 22.9027V12.2216Z" stroke="url(#paint1_linear_23_2392)" stroke-opacity="0.15"/>
<path d="M9.73295 22.5621V12.3803H13.1733C13.9721 12.3803 14.625 12.5245 15.1321 12.8128C15.6425 13.0979 16.0204 13.484 16.2656 13.9712C16.5109 14.4584 16.6335 15.002 16.6335 15.6019C16.6335 16.2018 16.5109 16.747 16.2656 17.2376C16.0237 17.7281 15.6491 18.1192 15.142 18.4109C14.6349 18.6992 13.9853 18.8434 13.1932 18.8434H10.7273V17.7496H13.1534C13.7003 17.7496 14.1394 17.6552 14.4709 17.4663C14.8023 17.2773 15.0426 17.0221 15.1918 16.7006C15.3442 16.3758 15.4205 16.0096 15.4205 15.6019C15.4205 15.1942 15.3442 14.8297 15.1918 14.5082C15.0426 14.1867 14.8007 13.9348 14.4659 13.7525C14.1312 13.5669 13.687 13.4741 13.1335 13.4741H10.9659V22.5621H9.73295ZM21.4808 22.7212C20.7914 22.7212 20.1866 22.5572 19.6662 22.229C19.1491 21.9009 18.7448 21.4419 18.4531 20.8519C18.1648 20.2619 18.0206 19.5726 18.0206 18.7837C18.0206 17.9883 18.1648 17.2939 18.4531 16.7006C18.7448 16.1074 19.1491 15.6467 19.6662 15.3185C20.1866 14.9904 20.7914 14.8263 21.4808 14.8263C22.1702 14.8263 22.7734 14.9904 23.2905 15.3185C23.8108 15.6467 24.2152 16.1074 24.5036 16.7006C24.7952 17.2939 24.9411 17.9883 24.9411 18.7837C24.9411 19.5726 24.7952 20.2619 24.5036 20.8519C24.2152 21.4419 23.8108 21.9009 23.2905 22.229C22.7734 22.5572 22.1702 22.7212 21.4808 22.7212ZM21.4808 21.6672C22.0045 21.6672 22.4354 21.533 22.7734 21.2645C23.1115 20.9961 23.3617 20.6431 23.5241 20.2056C23.6866 19.7681 23.7678 19.2941 23.7678 18.7837C23.7678 18.2733 23.6866 17.7977 23.5241 17.3569C23.3617 16.9161 23.1115 16.5598 22.7734 16.288C22.4354 16.0162 22.0045 15.8803 21.4808 15.8803C20.9571 15.8803 20.5263 16.0162 20.1882 16.288C19.8501 16.5598 19.5999 16.9161 19.4375 17.3569C19.2751 17.7977 19.1939 18.2733 19.1939 18.7837C19.1939 19.2941 19.2751 19.7681 19.4375 20.2056C19.5999 20.6431 19.8501 20.9961 20.1882 21.2645C20.5263 21.533 20.9571 21.6672 21.4808 21.6672ZM28.2024 22.5621L25.8757 14.9258H27.1087L28.7592 20.7724H28.8388L30.4695 14.9258H31.7223L33.3331 20.7525H33.4126L35.0632 14.9258H36.2962L33.9695 22.5621H32.8161L31.1456 16.6957H31.0263L29.3558 22.5621H28.2024ZM40.7892 22.7212C40.0534 22.7212 39.4187 22.5588 38.8851 22.234C38.3548 21.9059 37.9455 21.4485 37.6571 20.8618C37.3721 20.2719 37.2296 19.5858 37.2296 18.8036C37.2296 18.0214 37.3721 17.332 37.6571 16.7354C37.9455 16.1355 38.3465 15.6682 38.8603 15.3334C39.3773 14.9954 39.9805 14.8263 40.6699 14.8263C41.0676 14.8263 41.4604 14.8926 41.8482 15.0252C42.236 15.1578 42.589 15.3732 42.9071 15.6715C43.2253 15.9665 43.4789 16.3576 43.6678 16.8448C43.8567 17.332 43.9512 17.9319 43.9512 18.6445V19.1417H38.0648V18.1275H42.758C42.758 17.6966 42.6718 17.3121 42.4995 16.9741C42.3304 16.636 42.0885 16.3692 41.7736 16.1736C41.4621 15.9781 41.0942 15.8803 40.6699 15.8803C40.2026 15.8803 39.7982 15.9963 39.4569 16.2283C39.1188 16.457 38.8586 16.7553 38.6763 17.1232C38.494 17.4911 38.4029 17.8855 38.4029 18.3065V18.9826C38.4029 19.5593 38.5023 20.0482 38.7012 20.4492C38.9033 20.8469 39.1834 21.1502 39.5414 21.359C39.8993 21.5645 40.3153 21.6672 40.7892 21.6672C41.0975 21.6672 41.3759 21.6242 41.6245 21.538C41.8764 21.4485 42.0935 21.3159 42.2757 21.1403C42.458 20.9613 42.5989 20.7392 42.6983 20.4741L43.8319 20.7922C43.7125 21.1767 43.512 21.5148 43.2303 21.8065C42.9486 22.0948 42.6006 22.3202 42.1863 22.4826C41.772 22.6417 41.3063 22.7212 40.7892 22.7212ZM45.736 22.5621V14.9258H46.8695V16.0792H46.949C47.0882 15.7013 47.3401 15.3948 47.7047 15.1594C48.0693 14.9241 48.4803 14.8065 48.9377 14.8065C49.0239 14.8065 49.1316 14.8081 49.2608 14.8114C49.3901 14.8147 49.4879 14.8197 49.5542 14.8263V16.0195C49.5144 16.0096 49.4232 15.9947 49.2807 15.9748C49.1415 15.9516 48.994 15.94 48.8382 15.94C48.467 15.94 48.1356 16.0179 47.8439 16.1736C47.5556 16.3261 47.3269 16.5382 47.1578 16.81C46.9921 17.0785 46.9093 17.3851 46.9093 17.7297V22.5621H45.736ZM53.9142 22.7212C53.1784 22.7212 52.5437 22.5588 52.0101 22.234C51.4798 21.9059 51.0705 21.4485 50.7821 20.8618C50.4971 20.2719 50.3546 19.5858 50.3546 18.8036C50.3546 18.0214 50.4971 17.332 50.7821 16.7354C51.0705 16.1355 51.4715 15.6682 51.9853 15.3334C52.5023 14.9954 53.1055 14.8263 53.7949 14.8263C54.1926 14.8263 54.5854 14.8926 54.9732 15.0252C55.361 15.1578 55.714 15.3732 56.0321 15.6715C56.3503 15.9665 56.6039 16.3576 56.7928 16.8448C56.9817 17.332 57.0762 17.9319 57.0762 18.6445V19.1417H51.1898V18.1275H55.883C55.883 17.6966 55.7968 17.3121 55.6245 16.9741C55.4554 16.636 55.2135 16.3692 54.8986 16.1736C54.5871 15.9781 54.2192 15.8803 53.7949 15.8803C53.3276 15.8803 52.9232 15.9963 52.5819 16.2283C52.2438 16.457 51.9836 16.7553 51.8013 17.1232C51.619 17.4911 51.5279 17.8855 51.5279 18.3065V18.9826C51.5279 19.5593 51.6273 20.0482 51.8262 20.4492C52.0283 20.8469 52.3084 21.1502 52.6664 21.359C53.0243 21.5645 53.4403 21.6672 53.9142 21.6672C54.2225 21.6672 54.5009 21.6242 54.7495 21.538C55.0014 21.4485 55.2185 21.3159 55.4007 21.1403C55.583 20.9613 55.7239 20.7392 55.8233 20.4741L56.9569 20.7922C56.8375 21.1767 56.637 21.5148 56.3553 21.8065C56.0736 22.0948 55.7256 22.3202 55.3113 22.4826C54.897 22.6417 54.4313 22.7212 53.9142 22.7212ZM61.7445 22.7212C61.1081 22.7212 60.5463 22.5605 60.0591 22.239C59.5719 21.9142 59.1908 21.4568 58.9157 20.8668C58.6406 20.2735 58.503 19.5726 58.503 18.7638C58.503 17.9618 58.6406 17.2657 58.9157 16.6758C59.1908 16.0858 59.5736 15.6301 60.0641 15.3086C60.5546 14.9871 61.1214 14.8263 61.7644 14.8263C62.2615 14.8263 62.6543 14.9092 62.9426 15.0749C63.2343 15.2373 63.4564 15.4229 63.6088 15.6317C63.7646 15.8372 63.8856 16.0063 63.9718 16.1388H64.0712V12.3803H65.2445V22.5621H64.111V21.3888H63.9718C63.8856 21.528 63.763 21.7037 63.6039 21.9158C63.4448 22.1246 63.2177 22.3119 62.9228 22.4776C62.6278 22.64 62.235 22.7212 61.7445 22.7212ZM61.9036 21.6672C62.3742 21.6672 62.772 21.5446 63.0968 21.2993C63.4216 21.0508 63.6685 20.7077 63.8375 20.2702C64.0066 19.8294 64.0911 19.3207 64.0911 18.744C64.0911 18.1739 64.0082 17.6751 63.8425 17.2475C63.6768 16.8166 63.4315 16.4819 63.1067 16.2432C62.7819 16.0013 62.3809 15.8803 61.9036 15.8803C61.4064 15.8803 60.9921 16.0079 60.6607 16.2631C60.3326 16.515 60.0856 16.8581 59.9199 17.2922C59.7575 17.7231 59.6763 18.207 59.6763 18.744C59.6763 19.2875 59.7592 19.7814 59.9249 20.2255C60.0939 20.6663 60.3425 21.0176 60.6706 21.2795C61.0021 21.538 61.4131 21.6672 61.9036 21.6672ZM71.6529 22.5621V12.3803H72.8262V16.1388H72.9256C73.0118 16.0063 73.1311 15.8372 73.2836 15.6317C73.4393 15.4229 73.6614 15.2373 73.9498 15.0749C74.2414 14.9092 74.6358 14.8263 75.133 14.8263C75.776 14.8263 76.3427 14.9871 76.8333 15.3086C77.3238 15.6301 77.7066 16.0858 77.9817 16.6758C78.2568 17.2657 78.3944 17.9618 78.3944 18.7638C78.3944 19.5726 78.2568 20.2735 77.9817 20.8668C77.7066 21.4568 77.3255 21.9142 76.8382 22.239C76.351 22.5605 75.7892 22.7212 75.1529 22.7212C74.6623 22.7212 74.2696 22.64 73.9746 22.4776C73.6796 22.3119 73.4526 22.1246 73.2935 21.9158C73.1344 21.7037 73.0118 21.528 72.9256 21.3888H72.7864V22.5621H71.6529ZM72.8063 18.744C72.8063 19.3207 72.8908 19.8294 73.0598 20.2702C73.2289 20.7077 73.4758 21.0508 73.8006 21.2993C74.1254 21.5446 74.5231 21.6672 74.9938 21.6672C75.4843 21.6672 75.8936 21.538 76.2218 21.2795C76.5532 21.0176 76.8018 20.6663 76.9675 20.2255C77.1365 19.7814 77.2211 19.2875 77.2211 18.744C77.2211 18.207 77.1382 17.7231 76.9725 17.2922C76.8101 16.8581 76.5632 16.515 76.2317 16.2631C75.9036 16.0079 75.4909 15.8803 74.9938 15.8803C74.5165 15.8803 74.1155 16.0013 73.7907 16.2432C73.4659 16.4819 73.2206 16.8166 73.0549 17.2475C72.8891 17.6751 72.8063 18.1739 72.8063 18.744ZM80.6713 25.4258C80.4725 25.4258 80.2952 25.4092 80.1394 25.3761C79.9836 25.3462 79.8759 25.3164 79.8162 25.2866L80.1145 24.2525C80.3996 24.3254 80.6515 24.3519 80.8702 24.332C81.089 24.3121 81.2828 24.2144 81.4519 24.0387C81.6242 23.8663 81.7817 23.5863 81.9242 23.1985L82.1429 22.6019L79.3191 14.9258H80.5918L82.6998 21.011H82.7793L84.8873 14.9258H86.16L82.9185 23.6758C82.7727 24.0702 82.592 24.3967 82.3766 24.6552C82.1612 24.917 81.9109 25.1109 81.6259 25.2368C81.3442 25.3628 81.026 25.4258 80.6713 25.4258Z" fill="white"/>
<g clip-path="url(#clip0_23_2392)">
<path d="M127.634 24.5479H124.651L129.196 11.373H132.785L137.325 24.5479H134.343L131.044 14.3869H130.943L127.634 24.5479ZM127.449 19.3697H134.501V21.5445H127.449V19.3697Z" fill="white"/>
<path d="M138.744 24.5472V11.3776H141.484V16.3288H141.568C141.689 16.0649 141.864 15.7904 142.09 15.5159C142.317 15.2414 142.618 15.0092 142.993 14.8192C143.363 14.6344 143.827 14.5394 144.381 14.5394C145.099 14.5394 145.764 14.7294 146.377 15.1042C146.984 15.4789 147.474 16.0437 147.839 16.7933C148.203 17.5481 148.388 18.4876 148.388 19.6225C148.388 20.7257 148.208 21.6547 147.855 22.4095C147.501 23.1643 147.021 23.7396 146.414 24.125C145.807 24.5156 145.126 24.7056 144.376 24.7056C143.843 24.7056 143.394 24.6159 143.02 24.4417C142.65 24.2675 142.344 24.0458 142.112 23.7766C141.874 23.5074 141.695 23.2382 141.573 22.9637H141.452V24.5472H138.744ZM141.431 19.6119C141.431 20.1978 141.51 20.7099 141.674 21.148C141.837 21.586 142.075 21.9239 142.381 22.1667C142.687 22.4095 143.067 22.5309 143.505 22.5309C143.949 22.5309 144.329 22.4095 144.635 22.1614C144.941 21.9134 145.178 21.5702 145.337 21.1321C145.495 20.694 145.58 20.1873 145.58 19.6119C145.58 19.0419 145.5 18.5404 145.342 18.1076C145.184 17.6747 144.951 17.337 144.64 17.0888C144.334 16.8461 143.954 16.7246 143.5 16.7246C143.056 16.7246 142.676 16.8408 142.37 17.0783C142.064 17.3158 141.827 17.6484 141.668 18.0812C141.51 18.514 141.431 19.0207 141.431 19.6119Z" fill="white"/>
<path d="M158.258 17.4857L155.751 17.6388C155.709 17.4224 155.614 17.2324 155.477 17.0582C155.335 16.884 155.15 16.7468 154.923 16.6412C154.696 16.5356 154.421 16.4828 154.104 16.4828C153.682 16.4828 153.324 16.5726 153.033 16.752C152.742 16.9315 152.595 17.169 152.595 17.4646C152.595 17.7021 152.69 17.8975 152.88 18.0611C153.07 18.2247 153.392 18.3567 153.851 18.4517L155.64 18.8106C156.601 19.0059 157.319 19.3226 157.789 19.7607C158.258 20.1989 158.496 20.7742 158.496 21.4868C158.496 22.136 158.306 22.7008 157.926 23.1917C157.546 23.6826 157.029 24.0627 156.369 24.3319C155.709 24.6063 154.954 24.7383 154.094 24.7383C152.785 24.7383 151.745 24.4638 150.969 23.9201C150.193 23.3712 149.739 22.6269 149.607 21.6874L152.305 21.5449C152.384 21.946 152.584 22.2469 152.895 22.4527C153.207 22.6586 153.608 22.7642 154.099 22.7642C154.58 22.7642 154.965 22.6692 155.26 22.4844C155.556 22.2997 155.704 22.0568 155.709 21.7613C155.704 21.5132 155.598 21.3073 155.392 21.149C155.186 20.9906 154.87 20.8639 154.442 20.7795L152.732 20.4364C151.766 20.2411 151.048 19.9085 150.578 19.4335C150.109 18.9584 149.876 18.3514 149.876 17.6124C149.876 16.979 150.051 16.4301 150.394 15.9709C150.737 15.5116 151.228 15.158 151.856 14.9099C152.484 14.6618 153.223 14.5351 154.068 14.5351C155.313 14.5351 156.3 14.7991 157.018 15.3269C157.72 15.86 158.137 16.5778 158.258 17.4857Z" fill="white"/>
<path d="M161.426 13.3931C161.02 13.3931 160.671 13.2559 160.381 12.9867C160.091 12.7122 159.948 12.385 159.948 12.0049C159.948 11.6249 160.091 11.3029 160.381 11.0284C160.671 10.754 161.02 10.622 161.426 10.622C161.833 10.622 162.181 10.7592 162.472 11.0284C162.762 11.3029 162.905 11.6249 162.905 12.0049C162.905 12.385 162.762 12.7122 162.472 12.9867C162.181 13.2612 161.833 13.3931 161.426 13.3931ZM160.049 24.5464V14.6705H162.788V24.5517H160.049V24.5464Z" fill="white"/>
<path d="M167.555 18.8364V24.5477H164.815V14.6718H167.428V16.4136H167.544C167.76 15.8383 168.13 15.3844 168.642 15.0466C169.154 14.7087 169.782 14.5399 170.516 14.5399C171.202 14.5399 171.798 14.6876 172.31 14.9885C172.823 15.2893 173.218 15.7169 173.498 16.2711C173.778 16.8254 173.92 17.4904 173.92 18.2558V24.5477H171.181V18.7467C171.186 18.1397 171.033 17.6699 170.716 17.3269C170.405 16.9837 169.972 16.8148 169.423 16.8148C169.053 16.8148 168.732 16.894 168.447 17.0524C168.167 17.2107 167.945 17.4429 167.792 17.7438C167.639 18.05 167.56 18.4142 167.555 18.8364Z" fill="white"/>
<path d="M181.167 14.6717V16.7302H175.218V14.6717H181.167ZM176.569 12.3017H179.308V21.5125C179.308 21.7658 179.345 21.9612 179.425 22.0984C179.504 22.2356 179.609 22.3359 179.752 22.3887C179.889 22.4467 180.053 22.4731 180.237 22.4731C180.364 22.4731 180.496 22.4626 180.623 22.4362C180.749 22.4151 180.85 22.3939 180.918 22.3834L181.351 24.4209C181.213 24.4631 181.018 24.5159 180.77 24.574C180.522 24.632 180.221 24.669 179.862 24.6795C179.202 24.7059 178.622 24.6162 178.131 24.4156C177.635 24.215 177.25 23.9036 176.975 23.476C176.701 23.0538 176.563 22.5154 176.569 21.8661V12.3017Z" fill="white"/>
<path d="M185.734 18.836V24.5472H182.994V11.3776H185.654V16.4132H185.77C185.993 15.8326 186.351 15.3734 186.853 15.0409C187.349 14.7083 187.972 14.5447 188.727 14.5447C189.412 14.5447 190.009 14.6925 190.526 14.9934C191.038 15.2889 191.44 15.7165 191.725 16.2707C192.01 16.8249 192.152 17.49 192.147 18.2607V24.5525H189.408V18.7463C189.412 18.1393 189.26 17.6642 188.948 17.3264C188.637 16.9886 188.204 16.8196 187.645 16.8196C187.27 16.8196 186.943 16.8988 186.657 17.0572C186.372 17.2155 186.151 17.4478 185.987 17.7487C185.818 18.0496 185.739 18.4138 185.734 18.836Z" fill="white"/>
<path d="M198.904 24.5849C197.885 24.5849 197.014 24.379 196.281 23.9621C195.552 23.5503 194.987 22.9591 194.591 22.199C194.196 21.439 194 20.5363 194 19.4965C194 18.4778 194.196 17.5857 194.591 16.8204C194.987 16.055 195.541 15.4532 196.26 15.0257C196.977 14.5981 197.822 14.3817 198.788 14.3817C199.437 14.3817 200.049 14.4873 200.609 14.6931C201.173 14.899 201.665 15.2157 202.087 15.6274C202.509 16.0444 202.836 16.567 203.074 17.1951C203.311 17.8232 203.428 18.5569 203.428 19.3962V20.151H195.087V18.4514H200.852C200.852 18.0555 200.767 17.7071 200.593 17.401C200.419 17.0948 200.187 16.8573 199.88 16.6831C199.58 16.5089 199.226 16.4245 198.83 16.4245C198.413 16.4245 198.049 16.5195 197.727 16.7095C197.405 16.8995 197.157 17.1529 196.977 17.4749C196.798 17.7969 196.703 18.1505 196.703 18.5411V20.1563C196.703 20.6472 196.793 21.0694 196.977 21.4231C197.162 21.7768 197.415 22.0512 197.753 22.2466C198.086 22.4419 198.481 22.5369 198.941 22.5369C199.247 22.5369 199.521 22.4946 199.775 22.4102C200.028 22.3257 200.244 22.1937 200.424 22.0249C200.604 21.856 200.741 21.6448 200.836 21.3967L203.369 21.5656C203.243 22.1727 202.979 22.7058 202.583 23.1597C202.187 23.6137 201.675 23.9621 201.052 24.2154C200.44 24.4582 199.717 24.5849 198.904 24.5849Z" fill="white"/>
<path d="M120.335 25.812L117.342 27.0154L117.268 27.0471C117.115 27.0999 116.946 27.1368 116.772 27.1368H113.9C113.647 27.1368 113.404 27.084 113.177 26.989C112.803 26.8307 112.481 26.5562 112.269 26.192L112.153 25.9914L108.062 18.9078L109.076 17.1659C109.472 16.4797 110.464 16.4797 110.86 17.1659L115.357 24.9569C115.653 25.4688 116.165 25.8067 116.74 25.8858H116.746C116.825 25.8964 116.909 25.9017 116.994 25.9017H119.865C120.029 25.8964 120.192 25.87 120.335 25.812Z" fill="#006258"/>
<path d="M108.241 8.44424C107.787 8.6448 107.381 8.99318 107.101 9.47353L107.011 9.62659L101.653 18.9166L98.8507 23.7727C98.7873 23.8783 98.7451 23.9891 98.7134 24.1V24.1053C98.497 24.8654 98.972 25.673 99.7427 25.8577H99.748C99.8536 25.8841 99.9644 25.8947 100.081 25.8947H101.664H102.947C103.158 25.8947 103.364 25.8577 103.554 25.7944L100.582 26.9873C100.355 27.0823 100.112 27.1351 99.8588 27.1351H96.9874C96.5229 27.1351 96.1323 26.9187 95.8789 26.602C95.8789 26.602 95.8789 26.602 95.8789 26.5967C95.5411 26.1692 95.4514 25.5621 95.7575 25.0237L104.018 10.7087C104.309 10.2125 104.726 9.86942 105.19 9.67409L105.264 9.64242L108.241 8.44424Z" fill="#006258"/>
<path d="M119.622 27.0508C119.469 27.1089 119.311 27.1353 119.142 27.1353H116.27C116.186 27.1353 116.107 27.13 116.027 27.1195H116.022C115.447 27.0455 114.935 26.7025 114.639 26.1957L110.142 18.4048C109.746 17.7239 108.759 17.7186 108.363 18.3995L105.37 23.5829L103.861 26.1904C103.639 26.5811 103.285 26.8713 102.874 27.0192L102.837 27.0297C102.641 27.0983 102.436 27.13 102.23 27.13H100.947H99.3582C99.2421 27.13 99.1312 27.1195 99.0257 27.093H99.0204C98.8409 27.0508 98.6773 26.9717 98.5295 26.8661C98.065 26.5336 97.8275 25.9212 97.9911 25.3406V25.3353C98.0228 25.2245 98.065 25.1136 98.1283 25.0081L100.931 20.152L107.012 9.62154L107.102 9.46843C107.381 8.98284 107.783 8.645 108.237 8.44444C108.553 8.30193 108.902 8.23331 109.25 8.23331C110.084 8.23331 110.918 8.645 111.393 9.47373L113.62 13.327L120.366 25.0134C120.826 25.8051 120.419 26.7658 119.622 27.0508Z" fill="#CFE900"/>
<path d="M119.623 27.0502C119.469 27.1083 119.311 27.1347 119.142 27.1347H116.271C116.186 27.1347 116.107 27.1294 116.028 27.1188H116.023C115.447 27.0449 114.935 26.7018 114.64 26.1951L110.143 18.4042C110.021 18.1983 109.847 18.0505 109.652 17.9713C109.203 17.7813 108.638 17.9238 108.358 18.3989L111.267 13.3633C111.789 12.466 113.077 12.4501 113.616 13.3264L113.88 13.7803C113.88 13.7803 113.885 13.7856 113.885 13.7908L117.664 20.3414L120.362 25.0075C120.826 25.8045 120.42 26.7652 119.623 27.0502Z" fill="#799A07"/>
<path opacity="0.2" d="M113.885 13.7797C113.473 13.0883 112.47 13.0935 112.064 13.7903L109.652 17.9655C109.203 17.7755 108.638 17.918 108.358 18.3931L111.267 13.3575C111.789 12.4601 113.077 12.4443 113.616 13.3205L113.885 13.7797Z" fill="#00002D"/>
<path opacity="0.15" d="M109.25 8.23331L98.5295 26.8661C98.065 26.5336 97.8275 25.9212 97.9911 25.3406V25.3353C98.0228 25.2245 98.065 25.1136 98.1283 25.0081L100.931 20.152L107.012 9.62154L107.102 9.46843C107.381 8.98284 107.783 8.645 108.237 8.44444C108.559 8.30193 108.907 8.23331 109.25 8.23331Z" fill="white"/>
</g>
</g>
<defs>
<filter id="filter0_b_23_2392" x="-114.5" y="-114.778" width="441" height="264.681" filterUnits="userSpaceOnUse" color-interpolation-filters="sRGB">
<feFlood flood-opacity="0" result="BackgroundImageFix"/>
<feGaussianBlur in="BackgroundImageFix" stdDeviation="57.5"/>
<feComposite in2="SourceAlpha" operator="in" result="effect1_backgroundBlur_23_2392"/>
<feBlend mode="normal" in="SourceGraphic" in2="effect1_backgroundBlur_23_2392" result="shape"/>
</filter>
<linearGradient id="paint0_linear_23_2392" x1="0.5" y1="17.5621" x2="211.5" y2="17.5621" gradientUnits="userSpaceOnUse">
<stop stop-color="#006253"/>
<stop offset="1" stop-color="#CFE900" stop-opacity="0.64"/>
</linearGradient>
<linearGradient id="paint1_linear_23_2392" x1="0.5" y1="17.5621" x2="115.5" y2="35.3817" gradientUnits="userSpaceOnUse">
<stop stop-color="#006258"/>
<stop offset="1" stop-color="#CFE900"/>
</linearGradient>
<clipPath id="clip0_23_2392">
<rect width="108" height="18.6811" fill="white" transform="translate(95.5 8.22159)"/>
</clipPath>
</defs>
</svg>
